<?xml version="1.0" standalone="no"?>
<!DOCTYPE svg PUBLIC "-//W3C//DTD SVG 20010904//EN"
 "http://www.w3.org/TR/2001/REC-SVG-20010904/DTD/svg10.dtd">
<svg version="1.0" xmlns="http://www.w3.org/2000/svg"
 width="1886.000000pt" height="570.000000pt" viewBox="0 0 1886.000000 570.000000"
 preserveAspectRatio="xMidYMid meet">

<g transform="translate(0.000000,570.000000) scale(0.100000,-0.100000)"
fill="#000000" stroke="none">
<path d="M1850 3414 c-114 -58 -223 -141 -270 -205 -107 -149 -88 -314 54
-454 l60 -60 1 -75 c1 -64 5 -83 28 -123 82 -139 234 -190 369 -124 32 16 71
44 86 63 l29 35 87 -20 c553 -132 1333 -110 1833 50 319 102 509 235 582 408
59 141 -21 318 -198 434 -78 52 -224 127 -246 127 -12 0 -15 -14 -15 -69 l0
-69 58 -29 c188 -95 282 -192 282 -293 0 -57 -29 -108 -95 -168 -136 -125
-388 -224 -715 -283 -187 -33 -223 -37 -452 -50 -342 -20 -766 13 -1010 79
l-63 17 -6 50 c-13 102 -75 186 -168 228 -87 39 -247 11 -298 -51 -10 -12 -15
-12 -37 5 -62 49 -109 138 -100 188 17 95 96 178 245 258 l64 35 5 72 c3 39 3
73 0 75 -3 2 -53 -21 -110 -51z"/>
<path d="M1055 1546 c-50 -22 -68 -51 -67 -103 0 -58 24 -80 125 -119 103 -39
128 -97 65 -149 -26 -22 -39 -26 -71 -22 -40 5 -82 37 -92 68 -4 11 -12 15
-25 12 -25 -7 -25 -10 0 -50 21 -36 85 -73 125 -73 69 0 135 57 135 116 0 73
-29 104 -140 145 -30 11 -61 27 -67 36 -22 28 -15 70 13 92 42 33 96 25 134
-20 20 -25 51 -9 34 18 -31 50 -115 74 -169 49z"/>
<path d="M3539 1521 c-21 -22 -29 -39 -29 -65 0 -33 -2 -36 -29 -36 -24 0 -28
-3 -24 -20 3 -13 14 -20 29 -20 l24 0 0 -130 c0 -123 1 -130 20 -130 19 0 20
7 20 130 l0 130 40 0 c33 0 40 3 40 20 0 16 -7 20 -35 20 -39 0 -51 15 -41 54
6 26 37 41 73 37 17 -2 20 2 16 18 -9 33 -67 28 -104 -8z"/>
<path d="M3854 1537 c-2 -7 -3 -102 -2 -212 l3 -200 65 -3 c143 -8 232 39 266
140 19 59 14 134 -13 180 -27 46 -86 89 -135 99 -69 13 -178 11 -184 -4z m200
-43 c67 -23 101 -76 101 -158 0 -115 -66 -175 -192 -176 l-63 0 0 175 0 175
53 0 c29 0 75 -7 101 -16z"/>
<path d="M1405 1423 c-32 -8 -63 -43 -81 -89 -53 -138 78 -269 204 -205 48 25
70 56 46 65 -9 4 -28 -4 -46 -19 -35 -30 -92 -33 -127 -9 -25 18 -55 79 -46
94 4 6 60 10 126 10 132 0 130 -2 108 69 -16 51 -60 83 -117 87 -26 1 -56 0
-67 -3z m90 -37 c34 -14 55 -41 55 -70 0 -13 -15 -16 -95 -16 -76 0 -95 3 -95
14 0 22 48 74 73 79 12 2 23 5 25 6 1 0 18 -5 37 -13z"/>
<path d="M1714 1416 c-17 -8 -34 -21 -37 -29 -9 -25 20 -28 58 -6 38 23 75 20
113 -9 26 -20 36 -79 12 -74 -102 23 -169 5 -197 -52 -16 -34 -16 -38 0 -72
18 -36 65 -64 109 -64 13 0 40 11 60 25 45 30 48 31 48 5 0 -13 7 -20 18 -20
16 0 18 10 17 108 0 64 -6 120 -14 139 -23 56 -115 80 -187 49z m131 -150 c40
-17 40 -17 20 -56 -20 -39 -53 -60 -94 -60 -69 0 -97 68 -45 109 31 25 71 27
119 7z"/>
<path d="M2033 1421 c-34 -15 -56 -55 -48 -90 8 -36 37 -56 102 -72 54 -13 83
-34 83 -60 0 -52 -87 -67 -139 -23 -22 18 -35 23 -47 16 -14 -8 -11 -13 16
-40 73 -73 210 -40 210 52 0 44 -26 66 -110 91 -78 24 -95 48 -55 83 31 26 74
25 105 -3 16 -15 50 -11 50 5 0 33 -117 62 -167 41z"/>
<path d="M2360 1422 c-13 -4 -39 -27 -57 -51 -27 -35 -33 -52 -33 -92 0 -71
30 -126 83 -150 54 -24 88 -24 138 1 100 52 113 188 25 269 -28 26 -107 37
-156 23z m105 -38 c115 -54 78 -234 -47 -234 -32 0 -47 7 -74 34 -29 29 -34
41 -34 80 0 37 21 105 33 106 1 0 20 7 42 15 50 18 41 18 80 -1z"/>
<path d="M2740 1423 c-8 -3 -25 -15 -37 -26 l-23 -20 0 21 c0 15 -6 22 -20 22
-19 0 -20 -7 -20 -150 0 -143 1 -150 20 -150 19 0 20 7 20 98 0 79 4 103 20
130 32 52 88 62 133 24 14 -13 17 -33 17 -134 0 -111 1 -118 20 -118 19 0 20
7 20 129 l0 129 -31 26 c-30 25 -80 33 -119 19z"/>
<path d="M3205 1423 c-53 -14 -95 -80 -95 -150 0 -63 27 -112 76 -140 46 -27
80 -29 132 -8 107 43 125 209 30 278 -27 20 -104 31 -143 20z m121 -49 c62
-41 57 -163 -8 -208 -36 -26 -93 -20 -129 12 -25 23 -33 38 -36 78 -6 63 13
105 59 127 36 18 77 14 114 -9z"/>
<path d="M4334 1416 c-76 -34 -110 -156 -62 -225 52 -76 124 -99 196 -62 98
50 118 168 44 251 -33 37 -43 42 -92 46 -35 3 -66 -1 -86 -10z m110 -30 c48
-20 66 -51 66 -114 0 -48 -4 -58 -34 -88 -76 -76 -186 -21 -186 94 0 46 29 88
74 108 39 17 40 17 80 0z"/>
<path d="M4690 1413 c-108 -55 -99 -243 13 -288 20 -8 49 -15 63 -15 56 0 147
72 109 86 -8 3 -28 -5 -46 -20 -58 -49 -145 -24 -169 50 -41 123 94 224 178
134 15 -16 25 -20 37 -12 16 8 14 12 -12 42 -25 28 -38 34 -84 37 -39 3 -64
-1 -89 -14z"/>
<path d="M5001 1420 c-70 -30 -66 -121 6 -147 15 -6 47 -16 70 -22 54 -15 71
-42 48 -77 -22 -35 -92 -34 -127 1 -16 16 -32 23 -42 19 -21 -8 -20 -17 7 -42
48 -45 107 -53 167 -22 31 16 40 27 46 55 10 53 -12 78 -92 104 -38 12 -74 27
-81 33 -24 20 -14 48 23 65 35 17 37 17 76 -5 52 -28 80 -17 44 17 -29 27
-105 38 -145 21z"/>
</g>
</svg>
